<svg id="events" xmlns="http://www.w3.org/2000/svg" width="161.782" height="161.795" viewBox="0 0 161.782 161.795">
  <path id="Path_60" data-name="Path 60" d="M107.447,6.227c0-3.436,3.4-6.227,7.6-6.227s7.6,2.791,7.6,6.227v27.28c0,3.436-3.4,6.227-7.6,6.227s-7.6-2.791-7.6-6.227V6.227ZM87.04,136.675c-.448,0-.8-1.883-.8-4.213s.355-4.213.8-4.213h20.789c.448,0,.8,1.883.8,4.213s-.355,4.213-.8,4.213ZM20.868,88.33c-.448,0-.8-1.883-.8-4.213s.355-4.213.8-4.213H41.657c.448,0,.8,1.883.8,4.213s-.355,4.213-.8,4.213Zm33.086,0c-.448,0-.8-1.883-.8-4.213s.355-4.213.8-4.213H74.743c.448,0,.8,1.883.8,4.213s-.355,4.213-.8,4.213Zm33.086,0c-.448,0-.8-1.883-.8-4.213s.355-4.213.8-4.213h20.789c.448,0,.8,1.883.8,4.213s-.355,4.213-.8,4.213Zm33.1,0c-.448,0-.8-1.883-.8-4.213s.355-4.213.8-4.213h20.789c.448,0,.8,1.883.8,4.213s-.355,4.213-.8,4.213ZM20.868,112.5c-.448,0-.8-1.883-.8-4.213s.355-4.213.8-4.213H41.657c.448,0,.8,1.883.8,4.213s-.355,4.213-.8,4.213Zm33.086,0c-.448,0-.8-1.883-.8-4.213s.355-4.213.8-4.213H74.743c.448,0,.8,1.883.8,4.213s-.355,4.213-.8,4.213Zm33.086,0c-.448,0-.8-1.883-.8-4.213s.355-4.213.8-4.213h20.789c.448,0,.8,1.883.8,4.213s-.355,4.213-.8,4.213Zm33.1,0c-.448,0-.8-1.883-.8-4.213s.355-4.213.8-4.213h20.789c.448,0,.8,1.883.8,4.213s-.355,4.213-.8,4.213ZM20.868,136.675c-.448,0-.8-1.883-.8-4.213s.355-4.213.8-4.213H41.657c.448,0,.8,1.883.8,4.213s-.355,4.213-.8,4.213Zm33.086,0c-.448,0-.8-1.883-.8-4.213s.355-4.213.8-4.213H74.743c.448,0,.8,1.883.8,4.213s-.355,4.213-.8,4.213ZM38.984,6.227c0-3.436,3.4-6.227,7.6-6.227s7.6,2.791,7.6,6.227v27.28c0,3.436-3.4,6.227-7.6,6.227s-7.6-2.791-7.6-6.227V6.227ZM8.426,59.668H153.343v-31.4a3.888,3.888,0,0,0-1.132-2.725,3.841,3.841,0,0,0-2.725-1.132H135.608a4.213,4.213,0,0,1,0-8.426H149.5a12.317,12.317,0,0,1,12.284,12.284V149.512A12.317,12.317,0,0,1,149.5,161.8H12.284A12.317,12.317,0,0,1,0,149.5V28.267A12.317,12.317,0,0,1,12.284,15.983H27.122a4.213,4.213,0,0,1,0,8.426H12.284a3.887,3.887,0,0,0-2.725,1.132,3.841,3.841,0,0,0-1.132,2.725v31.4Zm144.93,8.439H8.426V149.5a3.887,3.887,0,0,0,1.132,2.725,3.841,3.841,0,0,0,2.725,1.132H149.5a3.887,3.887,0,0,0,2.725-1.132,3.841,3.841,0,0,0,1.132-2.725V68.107ZM66.4,24.41a4.213,4.213,0,1,1,0-8.426H94.689a4.213,4.213,0,1,1,0,8.426Z" transform="translate(0)" fill="#014693"/>
</svg>
