<svg id="Layer_1" data-name="Layer 1" xmlns="http://www.w3.org/2000/svg" viewBox="0 0 249.62 248.08"><path d="M144.08,248.08V161h29.18c1.86-12.13,3.68-24,5.56-36.3H144v-9.57c0-4.47,0-8.94,0-13.41.05-12,7.57-19.58,19.57-19.74,5.66-.07,11.32,0,17.15,0V51.26c-3.14-.44-6.27-1.07-9.43-1.27-7.31-.46-14.65-1.15-22-1-11.91.31-22.72,3.9-31.26,12.74a41.8,41.8,0,0,0-11.2,23.57,121.09,121.09,0,0,0-1,15.48c-.16,7.81,0,15.64,0,23.72H74v36.26h31.65c0,29.23,0,58.18,0,87.12C57,242,2.28,198.08.07,128.56a124.81,124.81,0,0,1,248.86-17C256.15,182.23,205.48,239,144.08,248.08Z"/></svg>