<svg id="Layer_1" data-name="Layer 1" xmlns="http://www.w3.org/2000/svg" viewBox="0 0 504 504"><path d="M0,335V169a32.1,32.1,0,0,0,.8-4.72C1.38,144.8,2.26,125.36,7,106.34,17.8,63.42,42.69,32.2,83.62,14.5,105.81,4.9,129.4,2.11,153.3,1.14,158.54.92,163.77.39,169,0H335a32.1,32.1,0,0,0,4.72.8c19.48.58,38.92,1.46,57.94,6.23C440.58,17.8,471.8,42.69,489.5,83.62c9.6,22.19,12.38,45.78,13.36,69.68.22,5.24.75,10.47,1.14,15.7V335a32.1,32.1,0,0,0-.8,4.72c-.58,19.48-1.46,38.92-6.23,57.94-10.77,42.92-35.66,74.14-76.59,91.84-22.19,9.6-45.78,12.38-69.68,13.36-5.24.22-10.47.75-15.7,1.14H169a32.1,32.1,0,0,0-4.72-.8c-19.48-.58-38.92-1.46-57.94-6.23C63.42,486.2,32.2,461.31,14.5,420.38,4.9,398.19,2.11,374.6,1.14,350.7.92,345.46.39,340.23,0,335Zm45.06-83h.78c0,21-.41,42,.12,63,.49,19.79,1.23,39.63,3.24,59.3,1.95,19,8.65,36.47,21.56,51.19,17.76,20.24,41.08,28.77,66.86,30.34,29.73,1.82,59.56,2.26,89.35,2.62q44,.54,88-.35c19.79-.4,39.63-1.23,59.3-3.24,19-1.94,36.47-8.66,51.19-21.57,20.24-17.75,28.77-41.07,30.34-66.85,1.82-29.73,2.26-59.56,2.62-89.36q.54-44-.35-88c-.4-19.79-1.23-39.63-3.24-59.3-1.95-19-8.65-36.47-21.56-51.19-17.76-20.24-41.08-28.77-66.86-30.34C336.65,46.41,306.82,46,277,45.61c-29.32-.36-58.66-.37-88,.39-21.76.56-43.74,1-65.18,4.33-36.63,5.73-61.45,26.93-71.31,63.29a166.12,166.12,0,0,0-5.35,36.94C46,184.34,45.71,218.16,45.06,252Z"/><path d="M252.23,122.49a129.43,129.43,0,0,1,129.28,130c-.14,71.35-58.19,129.09-129.74,129a129.44,129.44,0,0,1-129.28-130C122.64,180.16,180.7,122.41,252.23,122.49Zm-.09,45.68c-45.91,0-83.92,37.49-84,82.82,0,46.75,37.14,84.8,82.94,84.84,46.91,0,84.71-37.25,84.72-83.57S298.34,168.17,252.14,168.17Z"/><path d="M416.84,117.63a30.4,30.4,0,1,1-30.38-30.47A30.43,30.43,0,0,1,416.84,117.63Z"/></svg>