<svg id="Layer_1" data-name="Layer 1" xmlns="http://www.w3.org/2000/svg" viewBox="0 0 355.09 319.02"><defs><style>.cls-1{fill:#a69e94;}.cls-2{fill:#fcfcfc;}.cls-3{fill:#014693;}</style></defs><g id="Logo"><path class="cls-1" d="M246.34,319c-8,0-16,.11-24,0-14.9-.26-29.8,0-44.7-.25s-30,0-44.94-.24c-15.42-.23-30.85,0-46.27-.25-13.81-.21-27.62,0-41.44-.24-2.73,0-5.47,0-8.2-.12a22.15,22.15,0,0,1-5.51-1.26,58.08,58.08,0,0,1-15.87-7.22,26.27,26.27,0,0,1-9.2-10.78c-2.32-4.88-4.48-9.8-5.48-15.15A34.07,34.07,0,0,1,3.4,261.54c2.11-4.28,4.71-8.32,7.07-12.48q6.1-10.76,12.2-21.51,5.32-9.39,10.68-18.76c4.2-7.37,8.38-14.75,12.61-22.1q7.77-13.49,15.6-26.93,8-13.77,16-27.55,7.47-12.83,15-25.63,8-13.67,15.87-27.33c4.22-7.27,8.49-14.51,12.71-21.77q6-10.33,12-20.69c5.53-9.64,11.45-19,19.09-27.19,2.67-2.85,5.55-5.5,9.28-7A41.64,41.64,0,0,1,170.58.56a49.33,49.33,0,0,1,9.87-.5,41.66,41.66,0,0,1,25,9.62c3.09,2.53,4.8,5.9,6.75,9.15,7,11.75,13.92,23.54,20.88,35.31,6.14,10.38,12.25,20.77,18.45,31.12,7.27,12.15,14.17,24.51,21.18,36.81l25.12,44q8.19,14.35,16.38,28.7,10.44,18.35,20.83,36.71c4.42,7.8,9.06,15.49,13.2,23.43a57.5,57.5,0,0,1,6.86,28.56c-.31,10.11-3.42,19.22-10.73,26.5-4.83,4.81-10.58,7.72-17.59,7.91-3.34.09-6.68.09-10,.17-9.9.25-19.8.35-29.7.54-4.66.08-9.34,0-14,.22C264.13,319.17,255.24,318.94,246.34,319ZM315,314.7v-.49h12.8a5.65,5.65,0,0,0,1.08-.11c7.85-1.44,13.52-6,17.48-12.69,5.43-9.26,6.14-19.24,3.95-29.53a67.29,67.29,0,0,0-8-20.08c-5.53-9.44-10.84-19-16.26-28.51q-10.75-18.93-21.54-37.85l-17.13-30.08c-8.13-14.25-16.33-28.47-24.38-42.77C257.11,102,251,91.6,244.83,81.17c-6.51-11-13.09-22.06-19.64-33.09Q216.86,34,208.53,20c-1.09-1.83-1.87-3.89-3.39-5.41A36.78,36.78,0,0,0,179.81,3.7a63.53,63.53,0,0,0-12,1,20.4,20.4,0,0,0-12.07,6.5,105.68,105.68,0,0,0-9.53,11.67c-5.39,7.53-9.86,15.63-14.47,23.64q-5,8.69-10.05,17.33-9,15.48-18,31c-4.64,8-9.23,15.94-13.87,23.9-3.4,5.84-6.84,11.65-10.24,17.49q-7.92,13.59-15.82,27.22c-4.26,7.33-8.57,14.64-12.79,22-5.36,9.34-10.65,18.73-16,28.1q-6.16,10.86-12.35,21.71c-4.74,8.32-9.39,16.69-14.24,24.94A31.64,31.64,0,0,0,4.82,285a68.2,68.2,0,0,0,5.47,13.5A19.32,19.32,0,0,0,16,305.21c5.55,4.27,12,6.68,18.66,8.46a11.26,11.26,0,0,0,2.83.55c7.33.06,14.66,0,22,.13,16.87.24,33.74,0,50.61.25,14.9.19,29.79.09,44.68.28,11.4.15,22.79,0,34.19.18,14.78.23,29.56,0,44.34.26,7.45.13,14.9.08,22.35.09,9.18,0,18.35-.23,27.53-.45q7.41-.18,14.83-.25C303.69,314.67,309.36,314.7,315,314.7Z"/><path class="cls-2" d="M315,314.7c-5.68,0-11.35,0-17,0q-7.41.06-14.83.25c-9.18.22-18.35.47-27.53.45-7.45,0-14.9,0-22.35-.09-14.78-.26-29.56,0-44.34-.26-11.4-.17-22.79,0-34.19-.18-14.89-.19-29.78-.09-44.68-.28-16.87-.21-33.74,0-50.61-.25-7.33-.1-14.66-.07-22-.13a11.26,11.26,0,0,1-2.83-.55C28,311.89,21.55,309.48,16,305.21a19.32,19.32,0,0,1-5.71-6.75A68.2,68.2,0,0,1,4.82,285a31.64,31.64,0,0,1,3.53-24.82c4.85-8.25,9.5-16.62,14.24-24.94q6.18-10.86,12.35-21.71c5.33-9.37,10.62-18.76,16-28.1,4.22-7.36,8.53-14.67,12.79-22q7.92-13.6,15.82-27.22c3.4-5.84,6.84-11.65,10.24-17.49,4.64-8,9.23-15.94,13.87-23.9q9-15.48,18-30.95,5.06-8.65,10.05-17.33c4.61-8,9.08-16.11,14.47-23.64a105.68,105.68,0,0,1,9.53-11.67,20.4,20.4,0,0,1,12.07-6.5,63.53,63.53,0,0,1,12-1,36.78,36.78,0,0,1,25.33,10.84c1.52,1.52,2.3,3.58,3.39,5.41q8.37,14,16.66,28.13c6.55,11,13.13,22,19.64,33.09C251,91.6,257.11,102,263,112.58c8,14.3,16.25,28.52,24.38,42.77l17.13,30.08q10.77,18.93,21.54,37.85c5.42,9.51,10.73,19.07,16.26,28.51a67.29,67.29,0,0,1,8,20.08c2.19,10.29,1.48,20.27-3.95,29.53-4,6.73-9.63,11.25-17.48,12.69a5.65,5.65,0,0,1-1.08.11M96,309.61h0q28.1,0,56.19,0a1.94,1.94,0,0,0,1.7-.87,70.08,70.08,0,0,1,18.84-16.22c2.14-1.3,4.32-2.46,5.89-4.63,1.69-2.34,3.9-4.25,5.64-6.65,2.19-3,5.15-5.71,9.49-5.57a10.09,10.09,0,0,0,1.79-.23c5-.74,9.19-2.85,12-7.21,2-3,2.13-6.54,2.43-10a29.18,29.18,0,0,0-.69-7.32c-.15-.9-.66-1.85-.33-2.72,1.12-3,1.32-6.2,1.87-9.33a2,2,0,0,0-.42-1.5c-1.4-2.48-2.63-5-1.25-8a5.65,5.65,0,0,0,.47-2.6,21.07,21.07,0,0,0-.24-3.73c-.61-2.89.92-4.85,2.72-6.69a3.86,3.86,0,0,1,3.11-1.06,7.63,7.63,0,0,0,2.28-.15,8.74,8.74,0,0,0,6.35-9.52,19.47,19.47,0,0,0-.63-2.82c-1.5-4.75-3.38-9.37-5.18-14-2.17-5.58-4.17-11.25-7-16.54a13.32,13.32,0,0,1-1-10c1.23-4.9,1.61-9.89.11-14.8a92.42,92.42,0,0,1-2.83-11.33c-.51-2.87-1.21-5.8,1.13-8.33a6.32,6.32,0,0,0,.92-2,51.28,51.28,0,0,0,2.68-9.76,26.24,26.24,0,0,0,.33-7c-.49-6.45-4.47-11-8.84-15a61.48,61.48,0,0,0-14.65-9.49c-1.63-.8-3.34-1.61-5.18-1.39-1.56.18-3.12.31-4.67.48-2.44.27-5,.29-7.14,1.56a10.31,10.31,0,0,1-4.77,1.24c-3.55.29-7.08.41-10.54-.7a96.39,96.39,0,0,0-19-4,31.77,31.77,0,0,0-23.39,6.35,5.77,5.77,0,0,0-1.6,1.77c-1.23,2.17-2.5,4.31-3.75,6.47q-18.3,31.67-36.61,63.31Q50.69,197,29.11,234.32c-3.41,5.88-6.66,11.85-10.41,17.53a75.4,75.4,0,0,0-7.9,15.3c-3.92,10.6-2.15,26.75,10,35.07,6.71,4.61,14,7.4,22.19,7.39Zm154.34.94q31.41,0,62.83,0A51.09,51.09,0,0,0,331,307.45a23.72,23.72,0,0,0,10-6.36c2.37-2.68,3.48-6,4.51-9.34,1.17-3.78,1-7.8,1.13-11.73A32.23,32.23,0,0,0,342,261.77C335.76,251.52,330,241,324.08,230.6c-5.7-10-11.36-20-17.08-30q-10.81-18.9-21.69-37.75-8.12-14.13-16.25-28.23-6.07-10.57-12.14-21.14-7.26-12.6-14.53-25.18c-4.88-8.47-9.81-16.91-14.65-25.4-4-7-8.26-14-11.93-21.24a158,158,0,0,0-11.73-19.81c-3-4.26-6.51-7.93-11.33-10C186.12,8.93,179.22,7.39,172,9c-4.11.93-8.28,1.76-11.66,4.6A56.48,56.48,0,0,0,148.17,28.2c-2.7,4.52-5.06,9.24-7.55,13.88q-5,9.24-9.91,18.5c-.59,1.11-.51,1.25.69,1.3,2.17.1,4.34.2,6.51.22,4.83,0,9.67-.12,14.48.38,6.08.63,12.18.81,18.29,1.08,3.91.18,7.87-.51,11.65,1.46,2.14,1.11,4.66,1.48,7,2.21,4.37,1.37,8.83,2.59,12.78,5,3.16,1.92,6.1,4.21,9.38,5.93a33.84,33.84,0,0,1,10.87,9.21c1.47,1.87,2.61,3.85,2.45,6.36a11.36,11.36,0,0,0,.61,4.16,7,7,0,0,1-.72,5.91,12.65,12.65,0,0,0-2.2,5c-.33,2.61-1.17,5.17-.8,7.86.24,1.71.42,3.43.72,5.12.51,2.92.48,5.94,1.7,8.72a23.43,23.43,0,0,1,1.18,3.42c1.05,3.83,2.3,7.65,1.22,11.71a2.25,2.25,0,0,0,.13.94,16.32,16.32,0,0,1-.51,9.22c-1.34,3.85-2.32,7.88-.9,12a3.27,3.27,0,0,1,.26,1.29,6,6,0,0,0,1.26,3.7c1,1.59,2.08,3.15,3.12,4.73,3.31,5,6.74,9.93,9,15.52,1.39,3.42,2.57,6.67.32,10.44a9.3,9.3,0,0,1-7.53,4.84,6.1,6.1,0,0,0-5.68,6.29,13.53,13.53,0,0,0,2,6.51,7.27,7.27,0,0,1,.5,6.91c-.16.36-.25.76-.42,1.12a4.64,4.64,0,0,0,.21,4.57,26.33,26.33,0,0,1,2.41,5.64c.14.52.29,1-.35,1.35-1.68.79-2.37,2.34-3,3.92-1.27,3.14-.51,6.4-.24,9.55.35,4.08,1,8.13.61,12.24-.29,2.79-.8,5.51-3.26,7.37-3.08,2.34-6.3,4.33-10.36,4.33a4,4,0,0,0-2.25.8,29.38,29.38,0,0,0-7.35,7.73c-2,2.88-4.16,5.66-7.29,7.44a20.7,20.7,0,0,0-5,4.09,89.5,89.5,0,0,0-8.47,11.11c-.23.34-.75.7-.5,1.12s.75.14,1.14.14Z"/><path class="cls-3" d="M96,309.61h-53c-8.22,0-15.48-2.78-22.19-7.39-12.1-8.32-13.87-24.47-9.95-35.07a75.4,75.4,0,0,1,7.9-15.3c3.75-5.68,7-11.65,10.41-17.53Q50.71,197,72.26,159.73q18.3-31.65,36.61-63.31c1.25-2.16,2.52-4.3,3.75-6.47a5.77,5.77,0,0,1,1.6-1.77,31.77,31.77,0,0,1,23.39-6.35,96.39,96.39,0,0,1,19,4c3.46,1.11,7,1,10.54.7a10.31,10.31,0,0,0,4.77-1.24C174,84,176.59,84,179,83.71c1.55-.17,3.11-.3,4.67-.48,1.84-.22,3.55.59,5.18,1.39a61.48,61.48,0,0,1,14.65,9.49c4.37,4,8.35,8.56,8.84,15a26.24,26.24,0,0,1-.33,7,51.28,51.28,0,0,1-2.68,9.76,6.32,6.32,0,0,1-.92,2c-2.34,2.53-1.64,5.46-1.13,8.33a92.42,92.42,0,0,0,2.83,11.33c1.5,4.91,1.12,9.9-.11,14.8a13.32,13.32,0,0,0,1,10c2.84,5.29,4.84,11,7,16.54,1.8,4.65,3.68,9.27,5.18,14a19.47,19.47,0,0,1,.63,2.82,8.74,8.74,0,0,1-6.35,9.52,7.63,7.63,0,0,1-2.28.15,3.86,3.86,0,0,0-3.11,1.06c-1.8,1.84-3.33,3.8-2.72,6.69a21.07,21.07,0,0,1,.24,3.73,5.65,5.65,0,0,1-.47,2.6c-1.38,2.94-.15,5.5,1.25,8a2,2,0,0,1,.42,1.5c-.55,3.13-.75,6.31-1.87,9.33-.33.87.18,1.82.33,2.72a29.18,29.18,0,0,1,.69,7.32c-.3,3.43-.46,6.93-2.43,10-2.83,4.36-7,6.47-12,7.21a10.09,10.09,0,0,1-1.79.23c-4.34-.14-7.3,2.56-9.49,5.57-1.74,2.4-3.95,4.31-5.64,6.65-1.57,2.17-3.75,3.33-5.89,4.63a70.08,70.08,0,0,0-18.84,16.22,1.94,1.94,0,0,1-1.7.87q-28.1,0-56.19,0Z"/><path class="cls-1" d="M250.33,310.55h-66c-.39,0-.94.18-1.14-.14s.27-.78.5-1.12a89.5,89.5,0,0,1,8.47-11.11,20.7,20.7,0,0,1,5-4.09c3.13-1.78,5.27-4.56,7.29-7.44a29.38,29.38,0,0,1,7.35-7.73,4,4,0,0,1,2.25-.8c4.06,0,7.28-2,10.36-4.33,2.46-1.86,3-4.58,3.26-7.37.43-4.11-.26-8.16-.61-12.24-.27-3.15-1-6.41.24-9.55.63-1.58,1.32-3.13,3-3.92.64-.3.49-.83.35-1.35a26.33,26.33,0,0,0-2.41-5.64,4.64,4.64,0,0,1-.21-4.57c.17-.36.26-.76.42-1.12a7.27,7.27,0,0,0-.5-6.91,13.53,13.53,0,0,1-2-6.51,6.1,6.1,0,0,1,5.68-6.29,9.3,9.3,0,0,0,7.53-4.84c2.25-3.77,1.07-7-.32-10.44-2.27-5.59-5.7-10.52-9-15.52-1-1.58-2.1-3.14-3.12-4.73a6,6,0,0,1-1.26-3.7,3.27,3.27,0,0,0-.26-1.29c-1.42-4.13-.44-8.16.9-12a16.32,16.32,0,0,0,.51-9.22,2.25,2.25,0,0,1-.13-.94c1.08-4.06-.17-7.88-1.22-11.71a23.43,23.43,0,0,0-1.18-3.42c-1.22-2.78-1.19-5.8-1.7-8.72-.3-1.69-.48-3.41-.72-5.12-.37-2.69.47-5.25.8-7.86a12.65,12.65,0,0,1,2.2-5,7,7,0,0,0,.72-5.91,11.36,11.36,0,0,1-.61-4.16c.16-2.51-1-4.49-2.45-6.36a33.84,33.84,0,0,0-10.87-9.21c-3.28-1.72-6.22-4-9.38-5.93-4-2.39-8.41-3.61-12.78-5-2.35-.73-4.87-1.1-7-2.21-3.78-2-7.74-1.28-11.65-1.46-6.11-.27-12.21-.45-18.29-1.08-4.81-.5-9.65-.35-14.48-.38-2.17,0-4.34-.12-6.51-.22-1.2-.05-1.28-.19-.69-1.3q4.93-9.26,9.91-18.5c2.49-4.64,4.85-9.36,7.55-13.88a56.48,56.48,0,0,1,12.14-14.58C163.69,10.78,167.86,10,172,9c7.25-1.63,14.15-.09,20.78,2.8,4.82,2.11,8.34,5.78,11.33,10a158,158,0,0,1,11.73,19.81c3.67,7.26,7.9,14.19,11.93,21.24,4.84,8.49,9.77,16.93,14.65,25.4s9.69,16.78,14.53,25.18q6.07,10.56,12.14,21.14,8.12,14.12,16.25,28.23,10.86,18.87,21.69,37.75c5.72,10,11.38,20,17.08,30C330,241,335.76,251.52,342,261.77A32.23,32.23,0,0,1,346.61,280c-.14,3.93,0,8-1.13,11.73-1,3.29-2.14,6.66-4.51,9.34a23.72,23.72,0,0,1-10,6.36,51.09,51.09,0,0,1-17.84,3.12Q281.75,310.51,250.33,310.55Z"/></g></svg>