<svg id="Layer_1" data-name="Layer 1" xmlns="http://www.w3.org/2000/svg" viewBox="0 0 401.36 408.98"><defs><style>.cls-1{fill:#014693;}.cls-2{fill:#a69e94;}.cls-3{fill:#fcfcfc;}</style></defs><path class="cls-1" d="M84.86,351c-2.75,4.37-3.8,5.86-5.51,8.74-.78,1.26-3.27,5.87-7.34,13.57L65.45,385.2c-1.84,3.45-3.67,7-5.38,10.46q-2,3.79-3.54,6.56a19,19,0,0,0-1.05,2.07c-1,1.95-1.7,2.64-2.75,2.64s-1.84-.69-3-2.76l-3-5.4-24-45.66-1.57,27.83-.13,13c0,7.47,2.36,10.92,7.87,11.61,3.14.46,3.93.81,3.93,1.73s-.92,1.26-2.36,1.26c-.26,0-.26,0-7.08-.34-3.28-.12-5.51-.23-6.43-.23a71.39,71.39,0,0,0-8.39.57,14,14,0,0,1-2.1.12c-1,0-1.84-.46-1.84-1.27,0-.57.39-1,1.57-1.26,3.55-.69,4.6-1.27,5.91-3.11,1.83-2.41,2.62-5.29,2.88-10.46,1.71-30.82,1.84-34.39,1.84-38.65,0-13.34-3.67-19.2-13-20.7-1.44-.23-2-.57-2-1.38s.52-1.26,1.57-1.26l2.1.11a34.15,34.15,0,0,0,4.33.12c3,0,5.37-.12,6.69-.23l2.62-.12c2.23,0,2.75.58,5.12,4.83l26.62,50.49A82.89,82.89,0,0,0,55.22,393c.26,0,.66-.35.92-1a15.69,15.69,0,0,1,.79-1.49,9.83,9.83,0,0,1,.65-1.15l30-56.47c1.31-2.42,1.57-2.65,2.88-2.65.13,0,1.45.12,3.15.23H96c2.63,0,4.72-.11,6.17-.23l2-.11c.79,0,1.19.34,1.19,1.15,0,1-.14,1-4.07,1.95-4.2.92-5.9,4.26-5.9,12.08,0,1.72.13,4.25.39,14.26L96.93,390c.39,13.68.79,14.37,8.66,15.64,2.75.34,3.41.57,3.41,1.49s-.79,1.15-2.36,1.15c-.66,0-.66,0-6.69-.46-1.58-.11-3.28-.23-5.38-.23-1.71,0-2.23,0-11.54.46a19.47,19.47,0,0,1-2.36.12c-1.18,0-1.84-.35-1.84-1s.52-1,1.57-1.26c5.12-1.27,6.43-3.34,6.43-9.66,0-1.5-.13-7.59-.26-9.55Z"/><path class="cls-1" d="M129.59,378.3c-5.9-.12-6.69.34-8.92,5.17l-4.07,8.28c-2.36,4.72-2.88,6.1-2.88,8.4,0,3.56,1.44,4.71,7.47,5.86,1.32.23,2,.69,2,1.38s-.65.92-1.7.92c-.79,0-.79,0-8.4-.46-2.1-.11-4.2-.11-7.08-.11a24.32,24.32,0,0,0-3,.11c-1.83.12-3.28.23-3.54.23-1,0-1.7-.34-1.7-1s.13-.92,3.54-1.73c2.36-.8,6.16-5.63,8.78-11.38L143,329.76c.78-1.38,1.05-1.61,1.83-1.61s1.18.35,1.84,1.61l27.54,61.76c.79,2,1.71,3.8,2.63,5.87,2.23,5.4,5,7.36,11.67,8.28,1.31.23,2,.57,2,1.26s-.66,1-1.84,1l-2.36-.12c-2.1-.23-2.23-.23-11.93-.34l-6,.11a30.94,30.94,0,0,0-5,.35c-.92.11-1.71.23-2.1.23-.79,0-1.58-.58-1.58-1.15,0-.81.4-1,3.68-1.61a3.43,3.43,0,0,0,3.15-3.8c0-2.3-.92-5.06-3.94-12l-3.15-7.36c-1.05-2.41-1.44-3.1-2.1-3.45s-1.57-.57-4.32-.57ZM143.49,347c-.92-2.3-1.44-3-2.1-3-.39,0-.65.23-1,1l-12.46,24.38a4.16,4.16,0,0,0-.78,2.07c0,1.15.39,1.27,4.59,1.5h17.57c3.94,0,5-.23,5-1.39a8.75,8.75,0,0,0-.66-2.29Z"/><path class="cls-1" d="M257.6,351l.27,1.26a1.2,1.2,0,0,1-1.18,1.15c-.66,0-.92-.23-2.23-2.3-8-12.42-18.76-18.51-32.79-18.51-21.65,0-34.89,12.65-34.89,33.24,0,23.11,15.6,39.56,37.38,39.56A40.61,40.61,0,0,0,244.75,400c5-2.76,9.31-6.67,11.28-10,1.44-2.76,1.71-3,2.49-3a1.07,1.07,0,0,1,1.05,1,7.42,7.42,0,0,1-.39,2l-1.44,6.78c-.53,2.42-.53,2.42-2.89,3.8a64.28,64.28,0,0,1-32.27,8.51c-12.85,0-23.87-3.11-31.61-8.74A37.66,37.66,0,0,1,176,370.13c0-23.46,19.54-40.71,46-40.71a62.07,62.07,0,0,1,24.66,5.29c3,1.49,4.2,2,4.59,2a1.66,1.66,0,0,0,1.05-.46,4.94,4.94,0,0,1,2-.8c.65,0,1,.57,1.31,2.07Z"/><path class="cls-1" d="M324.89,368.29c0,23.69-19.28,40.83-45.91,40.83-11.41,0-22.82-3.11-30.3-8.17-10.1-7-16.13-18.86-16.13-32A38.66,38.66,0,0,1,248,338.73c8.26-5.86,19.8-9.31,31.48-9.31C306,329.42,324.89,345.63,324.89,368.29ZM242.65,365c0,12.88,4.2,23,13,30.93a37.69,37.69,0,0,0,25.7,10c19.68,0,34.11-14.15,34.11-33.58a38.82,38.82,0,0,0-13.38-29.56c-7.48-6.44-16.27-9.66-26.76-9.66C255.37,333.1,242.65,345.52,242.65,365Z"/><path class="cls-1" d="M340.5,378.3c-5.9-.12-6.69.34-8.92,5.17l-4.07,8.28c-2.36,4.72-2.88,6.1-2.88,8.4,0,3.56,1.44,4.71,7.47,5.86,1.32.23,2,.69,2,1.38s-.65.92-1.7.92c-.79,0-.79,0-8.4-.46-2.1-.11-4.2-.11-7.08-.11a24.32,24.32,0,0,0-3,.11c-1.83.12-3.28.23-3.54.23-1.05,0-1.7-.34-1.7-1s.13-.92,3.54-1.73c2.36-.8,6.16-5.63,8.79-11.38l32.92-64.18c.78-1.38,1.05-1.61,1.83-1.61s1.18.35,1.84,1.61l27.54,61.76c.79,2,1.71,3.8,2.63,5.87,2.23,5.4,5,7.36,11.67,8.28,1.31.23,2,.57,2,1.26s-.66,1-1.84,1l-2.36-.12c-2.1-.23-2.23-.23-11.93-.34l-6,.11a30.94,30.94,0,0,0-5,.35c-.92.11-1.71.23-2.1.23-.79,0-1.57-.58-1.57-1.15,0-.81.39-1,3.67-1.61a3.43,3.43,0,0,0,3.15-3.8c0-2.3-.92-5.06-3.94-12l-3.15-7.36c-1-2.41-1.44-3.1-2.1-3.45s-1.57-.57-4.32-.57ZM354.4,347c-.92-2.3-1.44-3-2.1-3-.39,0-.65.23-1.05,1l-12.46,24.38a4.16,4.16,0,0,0-.78,2.07c0,1.15.39,1.27,4.59,1.5h17.57c3.94,0,5-.23,5-1.39a8.75,8.75,0,0,0-.66-2.29Z"/><g id="Logo"><path class="cls-2" d="M272.07,319c-8,0-16,.11-24,0-14.9-.26-29.8,0-44.7-.25s-30,0-44.93-.24c-15.43-.23-30.85,0-46.27-.25-13.82-.21-27.63,0-41.44-.24-2.74,0-5.47,0-8.21-.12A22.25,22.25,0,0,1,57,316.56a58,58,0,0,1-15.86-7.22,26.27,26.27,0,0,1-9.2-10.78c-2.33-4.88-4.49-9.8-5.49-15.15a34.13,34.13,0,0,1,2.71-21.87c2.12-4.28,4.71-8.32,7.08-12.48q6.1-10.76,12.19-21.51C52,221.29,55.53,215,59.09,208.79c4.2-7.37,8.37-14.75,12.61-22.1q7.76-13.49,15.59-26.93,8-13.77,16-27.55,7.47-12.83,15-25.63,7.95-13.67,15.87-27.33c4.23-7.27,8.5-14.51,12.72-21.77q6-10.33,11.95-20.69c5.53-9.64,11.45-19,19.09-27.19,2.67-2.85,5.55-5.5,9.28-7A41.68,41.68,0,0,1,196.31.56a49.4,49.4,0,0,1,9.87-.5,41.63,41.63,0,0,1,25,9.62c3.09,2.53,4.81,5.9,6.75,9.15,7,11.75,13.92,23.54,20.88,35.31,6.14,10.38,12.26,20.77,18.45,31.12,7.27,12.15,14.18,24.51,21.19,36.81l25.12,44q8.19,14.35,16.38,28.7,10.43,18.35,20.82,36.71c4.43,7.8,9.06,15.49,13.21,23.43a57.59,57.59,0,0,1,6.85,28.56c-.3,10.11-3.42,19.22-10.72,26.5-4.83,4.81-10.59,7.72-17.59,7.91-3.34.09-6.68.09-10,.17-9.9.25-19.8.35-29.7.54-4.67.08-9.34,0-14,.22C289.87,319.17,281,318.94,272.07,319Zm68.7-4.25v-.49h12.8a5.47,5.47,0,0,0,1.07-.11c7.85-1.44,13.53-6,17.48-12.69,5.43-9.26,6.14-19.24,4-29.53a67.56,67.56,0,0,0-8-20.08c-5.54-9.44-10.85-19-16.26-28.51l-21.54-37.85q-8.57-15-17.14-30.08c-8.13-14.25-16.33-28.47-24.37-42.77-5.94-10.55-12.07-21-18.21-31.41-6.51-11-13.1-22.06-19.64-33.09Q242.59,34,234.27,20c-1.09-1.83-1.88-3.89-3.39-5.41A36.82,36.82,0,0,0,205.55,3.7a63.47,63.47,0,0,0-12,1,20.4,20.4,0,0,0-12.07,6.5A104.55,104.55,0,0,0,172,22.86c-5.39,7.53-9.86,15.63-14.47,23.64q-5,8.69-10,17.33-9,15.48-18.06,31-6.95,11.94-13.86,23.9c-3.4,5.84-6.85,11.65-10.25,17.49q-7.92,13.59-15.81,27.22c-4.27,7.33-8.57,14.64-12.79,22-5.37,9.34-10.66,18.73-16,28.1L48.32,235.2c-4.73,8.32-9.38,16.69-14.24,24.94A31.63,31.63,0,0,0,30.56,285,68.17,68.17,0,0,0,36,298.46a19.54,19.54,0,0,0,5.71,6.75c5.56,4.27,12,6.68,18.67,8.46a11.09,11.09,0,0,0,2.83.55c7.33.06,14.65,0,22,.13,16.87.24,33.75,0,50.62.25,14.89.19,29.79.09,44.68.28,11.39.15,22.79,0,34.19.18,14.77.23,29.55,0,44.33.26,7.45.13,14.9.08,22.36.09,9.18,0,18.35-.23,27.53-.45q7.41-.18,14.83-.25C329.42,314.67,335.1,314.7,340.77,314.7Z"/><path class="cls-3" d="M340.77,314.7c-5.67,0-11.35,0-17,0q-7.42.06-14.83.25c-9.18.22-18.35.47-27.53.45-7.46,0-14.91,0-22.36-.09-14.78-.26-29.56,0-44.33-.26-11.4-.17-22.8,0-34.19-.18-14.89-.19-29.79-.09-44.68-.28-16.87-.21-33.75,0-50.62-.25-7.33-.1-14.65-.07-22-.13a11.09,11.09,0,0,1-2.83-.55c-6.69-1.78-13.11-4.19-18.67-8.46A19.54,19.54,0,0,1,36,298.46,68.17,68.17,0,0,1,30.56,285a31.63,31.63,0,0,1,3.52-24.82c4.86-8.25,9.51-16.62,14.24-24.94l12.36-21.71c5.32-9.37,10.61-18.76,16-28.1,4.22-7.36,8.52-14.67,12.79-22q7.9-13.6,15.81-27.22c3.4-5.84,6.85-11.65,10.25-17.49q6.94-11.94,13.86-23.9,9-15.48,18.06-30.95,5-8.65,10-17.33c4.61-8,9.08-16.11,14.47-23.64a104.55,104.55,0,0,1,9.53-11.67,20.4,20.4,0,0,1,12.07-6.5,63.47,63.47,0,0,1,12-1,36.82,36.82,0,0,1,25.33,10.84c1.51,1.52,2.3,3.58,3.39,5.41q8.35,14,16.66,28.13c6.54,11,13.13,22,19.64,33.09,6.14,10.43,12.27,20.86,18.21,31.41,8,14.3,16.24,28.52,24.37,42.77q8.58,15,17.14,30.08l21.54,37.85c5.41,9.51,10.72,19.07,16.26,28.51a67.56,67.56,0,0,1,8,20.08c2.18,10.29,1.47,20.27-4,29.53-3.95,6.73-9.63,11.25-17.48,12.69a5.47,5.47,0,0,1-1.07.11m-231.84-4.59h0q28.1,0,56.19,0a2,2,0,0,0,1.7-.87,69.77,69.77,0,0,1,18.84-16.22c2.14-1.3,4.31-2.46,5.88-4.63,1.7-2.34,3.9-4.25,5.65-6.65,2.18-3,5.15-5.71,9.48-5.57a10.08,10.08,0,0,0,1.8-.23c5-.74,9.19-2.85,12-7.21,2-3,2.13-6.54,2.43-10A29.19,29.19,0,0,0,235,251c-.15-.9-.65-1.85-.33-2.72,1.13-3,1.32-6.2,1.87-9.33a2.06,2.06,0,0,0-.41-1.5c-1.4-2.48-2.64-5-1.25-8a5.65,5.65,0,0,0,.47-2.6,21.07,21.07,0,0,0-.25-3.73c-.61-2.89.93-4.85,2.73-6.69a3.84,3.84,0,0,1,3.11-1.06,7.56,7.56,0,0,0,2.27-.15,8.74,8.74,0,0,0,6.36-9.52,20.89,20.89,0,0,0-.63-2.82c-1.5-4.75-3.38-9.37-5.19-14-2.17-5.58-4.17-11.25-7-16.54a13.28,13.28,0,0,1-1-10c1.23-4.9,1.61-9.89.1-14.8A96.21,96.21,0,0,1,233,136.14c-.5-2.87-1.21-5.8,1.14-8.33a6.55,6.55,0,0,0,.92-2,51.26,51.26,0,0,0,2.67-9.76,25.83,25.83,0,0,0,.34-7c-.49-6.45-4.48-11-8.85-15a61.28,61.28,0,0,0-14.65-9.49c-1.63-.8-3.34-1.61-5.18-1.39-1.55.18-3.11.31-4.67.48-2.44.27-5,.29-7.13,1.56a10.35,10.35,0,0,1-4.78,1.24c-3.54.29-7.08.41-10.53-.7a96.7,96.7,0,0,0-19-4A31.77,31.77,0,0,0,140,88.18,5.68,5.68,0,0,0,138.35,90c-1.23,2.17-2.49,4.31-3.74,6.47L98,159.73Q76.42,197,54.85,234.32c-3.41,5.88-6.67,11.85-10.42,17.53a75.36,75.36,0,0,0-7.89,15.3c-3.92,10.6-2.15,26.75,10,35.07,6.71,4.61,14,7.4,22.19,7.39Zm154.33.94q31.43,0,62.84,0a51.17,51.17,0,0,0,17.84-3.12,23.78,23.78,0,0,0,10-6.36c2.37-2.68,3.48-6,4.5-9.34,1.17-3.78,1-7.8,1.13-11.73a32.14,32.14,0,0,0-4.65-18.25c-6.19-10.25-11.95-20.77-17.88-31.17q-8.54-15-17.07-30-10.82-18.9-21.7-37.75-8.12-14.13-16.25-28.23-6.07-10.57-12.14-21.14-7.25-12.6-14.52-25.18c-4.89-8.47-9.81-16.91-14.66-25.4-4-7-8.26-14-11.92-21.24a159.25,159.25,0,0,0-11.74-19.81c-3-4.26-6.51-7.93-11.32-10C211.86,8.93,205,7.39,197.71,9c-4.11.93-8.29,1.76-11.67,4.6A56.68,56.68,0,0,0,173.9,28.2c-2.69,4.52-5.05,9.24-7.55,13.88q-5,9.24-9.9,18.5c-.59,1.11-.51,1.25.68,1.3,2.17.1,4.34.2,6.51.22,4.83,0,9.68-.12,14.48.38,6.09.63,12.19.81,18.29,1.08,3.91.18,7.88-.51,11.66,1.46,2.14,1.11,4.66,1.48,7,2.21,4.38,1.37,8.83,2.59,12.79,5,3.16,1.92,6.09,4.21,9.37,5.93a33.84,33.84,0,0,1,10.87,9.21c1.48,1.87,2.62,3.85,2.45,6.36a11.58,11.58,0,0,0,.62,4.16,6.92,6.92,0,0,1-.73,5.91,12.79,12.79,0,0,0-2.2,5c-.33,2.61-1.16,5.17-.79,7.86.23,1.71.42,3.43.72,5.12.51,2.92.48,5.94,1.7,8.72a26.07,26.07,0,0,1,1.18,3.42c1,3.83,2.29,7.65,1.22,11.71a2.09,2.09,0,0,0,.12.94,16.32,16.32,0,0,1-.5,9.22c-1.34,3.85-2.32,7.88-.9,12a3.45,3.45,0,0,1,.26,1.29,5.94,5.94,0,0,0,1.26,3.7c1,1.59,2.07,3.15,3.11,4.73,3.31,5,6.74,9.93,9,15.52,1.38,3.42,2.56,6.67.31,10.44a9.27,9.27,0,0,1-7.52,4.84,6.11,6.11,0,0,0-5.69,6.29,13.64,13.64,0,0,0,2,6.51,7.24,7.24,0,0,1,.51,6.91c-.17.36-.25.76-.42,1.12a4.64,4.64,0,0,0,.21,4.57,25.8,25.8,0,0,1,2.4,5.64c.15.52.3,1-.35,1.35-1.68.79-2.36,2.34-3,3.92-1.26,3.14-.51,6.4-.24,9.55.35,4.08,1,8.13.62,12.24-.3,2.79-.8,5.51-3.26,7.37-3.09,2.34-6.3,4.33-10.37,4.33a4,4,0,0,0-2.24.8,29.58,29.58,0,0,0-7.36,7.73c-2,2.88-4.16,5.66-7.28,7.44a20.51,20.51,0,0,0-5,4.09,89.58,89.58,0,0,0-8.48,11.11c-.22.34-.75.7-.49,1.12s.75.14,1.14.14Z"/><path class="cls-1" d="M121.73,309.61h-53c-8.23,0-15.48-2.78-22.19-7.39-12.1-8.32-13.87-24.47-10-35.07a75.36,75.36,0,0,1,7.89-15.3c3.75-5.68,7-11.65,10.42-17.53Q76.45,197,98,159.73l36.62-63.31c1.25-2.16,2.51-4.3,3.74-6.47A5.68,5.68,0,0,1,140,88.18a31.77,31.77,0,0,1,23.39-6.35,96.7,96.7,0,0,1,19,4c3.45,1.11,7,1,10.53.7a10.35,10.35,0,0,0,4.78-1.24c2.11-1.27,4.69-1.29,7.13-1.56,1.56-.17,3.12-.3,4.67-.48,1.84-.22,3.55.59,5.18,1.39a61.28,61.28,0,0,1,14.65,9.49c4.37,4,8.36,8.56,8.85,15a25.83,25.83,0,0,1-.34,7,51.26,51.26,0,0,1-2.67,9.76,6.55,6.55,0,0,1-.92,2c-2.35,2.53-1.64,5.46-1.14,8.33a96.21,96.21,0,0,0,2.83,11.33c1.51,4.91,1.13,9.9-.1,14.8a13.28,13.28,0,0,0,1,10c2.83,5.29,4.83,11,7,16.54,1.81,4.65,3.69,9.27,5.19,14a20.89,20.89,0,0,1,.63,2.82,8.74,8.74,0,0,1-6.36,9.52,7.56,7.56,0,0,1-2.27.15,3.84,3.84,0,0,0-3.11,1.06c-1.8,1.84-3.34,3.8-2.73,6.69a21.07,21.07,0,0,1,.25,3.73,5.65,5.65,0,0,1-.47,2.6c-1.39,2.94-.15,5.5,1.25,8a2.06,2.06,0,0,1,.41,1.5c-.55,3.13-.74,6.31-1.87,9.33-.32.87.18,1.82.33,2.72a29.19,29.19,0,0,1,.7,7.32c-.3,3.43-.46,6.93-2.43,10-2.83,4.36-7,6.47-12,7.21a10.08,10.08,0,0,1-1.8.23c-4.33-.14-7.3,2.56-9.48,5.57-1.75,2.4-4,4.31-5.65,6.65-1.57,2.17-3.74,3.33-5.88,4.63a69.77,69.77,0,0,0-18.84,16.22,2,2,0,0,1-1.7.87q-28.09,0-56.19,0Z"/><path class="cls-2" d="M276.06,310.55h-66c-.39,0-1,.18-1.14-.14s.27-.78.49-1.12a89.58,89.58,0,0,1,8.48-11.11,20.51,20.51,0,0,1,5-4.09c3.12-1.78,5.26-4.56,7.28-7.44a29.58,29.58,0,0,1,7.36-7.73,4,4,0,0,1,2.24-.8c4.07,0,7.28-2,10.37-4.33,2.46-1.86,3-4.58,3.26-7.37.43-4.11-.27-8.16-.62-12.24-.27-3.15-1-6.41.24-9.55.64-1.58,1.32-3.13,3-3.92.65-.3.5-.83.35-1.35a25.8,25.8,0,0,0-2.4-5.64,4.64,4.64,0,0,1-.21-4.57c.17-.36.25-.76.42-1.12a7.24,7.24,0,0,0-.51-6.91,13.64,13.64,0,0,1-2-6.51,6.11,6.11,0,0,1,5.69-6.29,9.27,9.27,0,0,0,7.52-4.84c2.25-3.77,1.07-7-.31-10.44-2.28-5.59-5.71-10.52-9-15.52-1-1.58-2.1-3.14-3.11-4.73a5.94,5.94,0,0,1-1.26-3.7,3.45,3.45,0,0,0-.26-1.29c-1.42-4.13-.44-8.16.9-12a16.32,16.32,0,0,0,.5-9.22,2.09,2.09,0,0,1-.12-.94c1.07-4.06-.17-7.88-1.22-11.71a26.07,26.07,0,0,0-1.18-3.42c-1.22-2.78-1.19-5.8-1.7-8.72-.3-1.69-.49-3.41-.72-5.12-.37-2.69.46-5.25.79-7.86a12.79,12.79,0,0,1,2.2-5,6.92,6.92,0,0,0,.73-5.91,11.58,11.58,0,0,1-.62-4.16c.17-2.51-1-4.49-2.45-6.36a33.84,33.84,0,0,0-10.87-9.21c-3.28-1.72-6.21-4-9.37-5.93-4-2.39-8.41-3.61-12.79-5-2.34-.73-4.86-1.1-7-2.21-3.78-2-7.75-1.28-11.66-1.46-6.1-.27-12.2-.45-18.29-1.08-4.8-.5-9.65-.35-14.48-.38-2.17,0-4.34-.12-6.51-.22-1.19-.05-1.27-.19-.68-1.3q4.94-9.26,9.9-18.5c2.5-4.64,4.86-9.36,7.55-13.88A56.68,56.68,0,0,1,186,13.62c3.38-2.84,7.56-3.67,11.67-4.6,7.25-1.63,14.15-.09,20.78,2.8,4.81,2.11,8.33,5.78,11.32,10a159.25,159.25,0,0,1,11.74,19.81c3.66,7.26,7.9,14.19,11.92,21.24,4.85,8.49,9.77,16.93,14.66,25.4s9.69,16.78,14.52,25.18q6.09,10.56,12.14,21.14,8.11,14.12,16.25,28.23,10.86,18.87,21.7,37.75,8.56,15,17.07,30c5.93,10.4,11.69,20.92,17.88,31.17A32.14,32.14,0,0,1,372.34,280c-.14,3.93,0,8-1.13,11.73-1,3.29-2.13,6.66-4.5,9.34a23.78,23.78,0,0,1-10,6.36,51.17,51.17,0,0,1-17.84,3.12Q307.48,310.51,276.06,310.55Z"/></g></svg>