<svg xmlns="http://www.w3.org/2000/svg" width="178.001" height="161.795" viewBox="0 0 178.001 161.795">
  <g id="meal" transform="translate(0 0)">
    <path id="Path_61" data-name="Path 61" d="M37.17,27.963a2.97,2.97,0,0,1-4.2-4.2,3.431,3.431,0,0,0,1.246-2.926,9.693,9.693,0,0,0-1.3-3.216,20.132,20.132,0,0,1-2.593-6.765c-.377-2.636.058-5.664,2.187-9.343l.014-.058A3.021,3.021,0,0,1,34.288.107,2.935,2.935,0,0,1,36.533.4a3,3,0,0,1,1.391,1.8,2.935,2.935,0,0,1-.29,2.245,8.729,8.729,0,0,0-1.3,5.809A14.385,14.385,0,0,0,38.141,14.8c1.115,2.071,2.144,4,2.274,6.127.145,2.187-.652,4.447-3.245,7.04ZM20.41,61.947h136.9a4.153,4.153,0,0,1,1.579.319,4.384,4.384,0,0,1,1.275.826.384.384,0,0,1,.087.072,4.116,4.116,0,0,1,1.217,2.926v9.227h13.559a2.955,2.955,0,0,1,2.1.869h0a2.973,2.973,0,0,1,0,4.2l-.043.043a2.991,2.991,0,0,1-2.057.826H161.473v60.985a19.423,19.423,0,0,1-1.492,7.46,19.757,19.757,0,0,1-4.244,6.345,19.557,19.557,0,0,1-13.8,5.736H35.823a19.489,19.489,0,0,1-13.8-5.751,19.8,19.8,0,0,1-4.259-6.345,19.423,19.423,0,0,1-1.492-7.46V81.285H2.984A2.981,2.981,0,0,1,.869,76.2h0a2.98,2.98,0,0,1,2.1-.869h13.3V66.1a4.153,4.153,0,0,1,.319-1.579,4.3,4.3,0,0,1,.9-1.347,4.154,4.154,0,0,1,2.926-1.231ZM155.5,67.915H22.236v74.341a13.464,13.464,0,0,0,1.028,5.186,13.833,13.833,0,0,0,7.388,7.388,13.41,13.41,0,0,0,5.186,1.028H141.946a13.391,13.391,0,0,0,5.171-1.028,14.079,14.079,0,0,0,4.418-2.955,13.551,13.551,0,0,0,3.984-9.59V67.915ZM29.058,78.011a2.97,2.97,0,1,1,5.939,0v39.242a2.97,2.97,0,0,1-5.07,2.1l-.043-.043a2.991,2.991,0,0,1-.826-2.057V78.011ZM58.378,36.857a114.867,114.867,0,0,0-13.819,2.8,63.266,63.266,0,0,0-10.806,3.955,36.739,36.739,0,0,0-5.765,3.433,25.358,25.358,0,0,0-3.143,2.709h128.1A22.346,22.346,0,0,0,150,47.186a33.4,33.4,0,0,0-5.592-3.245,64.641,64.641,0,0,0-10.444-3.708,122.858,122.858,0,0,0-13.052-2.694c-2.144-.333-4.317-.637-6.5-.913h-.029c-2.158-.275-4.331-.507-6.533-.724-2.158-.2-4.346-.391-6.577-.536q-3.3-.217-6.562-.348a2.985,2.985,0,0,1-2.071-.942,2.929,2.929,0,0,1-.8-2.129v-.014a2.89,2.89,0,0,1,.362-1.318,3.055,3.055,0,0,1,.913-1.014,7.609,7.609,0,0,0,1.275-1.188,7.274,7.274,0,0,0,.956-1.434,6.668,6.668,0,0,0,.594-1.637,7.74,7.74,0,0,0,.2-1.753,7.355,7.355,0,0,0-.565-2.839,7.535,7.535,0,0,0-1.608-2.4,7.415,7.415,0,0,0-8.083-1.608,7.2,7.2,0,0,0-2.4,1.622,7.3,7.3,0,0,0-1.608,2.4h0a7.354,7.354,0,0,0-.565,2.839,8.38,8.38,0,0,0,.188,1.724,7.313,7.313,0,0,0,.579,1.608,7.9,7.9,0,0,0,.942,1.434,6.972,6.972,0,0,0,1.26,1.188,2.967,2.967,0,0,1,.594,4.157,3.085,3.085,0,0,1-1.028.869,2.977,2.977,0,0,1-1.217.319h-.145c-1.985.043-4.013.116-6.055.217-2.014.1-4.056.232-6.156.406-2.028.159-4.042.348-6.012.579s-3.94.464-5.881.753ZM31.159,38.248a69.194,69.194,0,0,1,11.7-4.288,119.347,119.347,0,0,1,14.674-3q3.02-.435,6.084-.782c2.071-.232,4.114-.435,6.171-.594,1.26-.1,2.578-.188,3.926-.275.927-.058,1.883-.1,2.839-.145a13.674,13.674,0,0,1-.855-2.492,13.323,13.323,0,0,1,3.563-12.53,13.213,13.213,0,0,1,4.346-2.9,13.4,13.4,0,0,1,10.227,0,13.678,13.678,0,0,1,4.346,2.9A13.322,13.322,0,0,1,102.11,23.6a13.214,13.214,0,0,1-.377,3.129,12.99,12.99,0,0,1-.942,2.636c1.1.072,2.173.145,3.216.232,1.405.1,2.868.232,4.375.377,2.245.217,4.476.464,6.721.753s4.476.594,6.692.942a129.046,129.046,0,0,1,13.819,2.868A69.963,69.963,0,0,1,146.9,38.567a35.968,35.968,0,0,1,8.764,5.577,21.7,21.7,0,0,1,5.461,7.2,3.022,3.022,0,0,1,.246.666,2.886,2.886,0,0,1,.087.71,2.955,2.955,0,0,1-.869,2.1l-.043.043a2.991,2.991,0,0,1-2.057.826H18.962a.447.447,0,0,1-.145-.014,3.536,3.536,0,0,1-.565-.087,3.485,3.485,0,0,1-.608-.232.587.587,0,0,1-.13-.072,3,3,0,0,1-1.376-1.724,2.885,2.885,0,0,1,.188-2.187.587.587,0,0,1,.072-.13,26.27,26.27,0,0,1,5.809-7.2,40.106,40.106,0,0,1,8.952-5.794Zm87.059-14.5a2.97,2.97,0,0,1-4.2,4.2c-2.593-2.593-3.39-4.853-3.259-7.026.13-2.129,1.173-4.056,2.274-6.127,1.449-2.723,3.114-5.823.507-10.357l-.029-.058a2.88,2.88,0,0,1-.261-2.2,2.962,2.962,0,0,1,5.432-.7c2.129,3.679,2.564,6.707,2.187,9.329a20.32,20.32,0,0,1-2.593,6.765h0c-1.159,2.2-2.158,4.07-.058,6.171Zm22.453,0a2.97,2.97,0,0,1-4.2,4.2c-2.593-2.593-3.39-4.853-3.259-7.026.13-2.129,1.173-4.056,2.274-6.127a14.735,14.735,0,0,0,1.811-4.549,8.563,8.563,0,0,0-1.3-5.809A2.957,2.957,0,0,1,137.093.4a2.935,2.935,0,0,1,2.245-.29,3,3,0,0,1,1.8,1.391c2.129,3.679,2.564,6.707,2.187,9.329a20.32,20.32,0,0,1-2.593,6.765,10.013,10.013,0,0,0-1.3,3.216,3.427,3.427,0,0,0,1.246,2.941ZM59.623,27.963a2.97,2.97,0,0,1-4.2-4.2c2.115-2.115,1.115-3.984-.058-6.156a20.093,20.093,0,0,1-2.593-6.779c-.377-2.636.058-5.664,2.187-9.343a2.965,2.965,0,0,1,5.432.739,2.933,2.933,0,0,1-.3,2.245c-2.607,4.52-.942,7.634.507,10.343h0c1.115,2.071,2.144,4,2.274,6.127.145,2.173-.666,4.433-3.245,7.026Z" transform="translate(0 0.013)" fill="#014693"/>
  </g>
</svg>
