<svg id="Layer_1" data-name="Layer 1" xmlns="http://www.w3.org/2000/svg" viewBox="0 0 401.36 126.21"><defs><style>.cls-1{fill:#014693;}</style></defs><path class="cls-1" d="M84.86,39.27c-2.75,4.37-3.8,5.86-5.51,8.74-.78,1.27-3.27,5.87-7.34,13.57L65.45,73.43c-1.84,3.45-3.67,7-5.38,10.46q-2,3.8-3.54,6.56a19,19,0,0,0-1.05,2.07c-1,2-1.7,2.64-2.75,2.64s-1.84-.69-3-2.76l-3-5.4-24-45.66L21.12,69.17l-.13,13c0,7.47,2.36,10.92,7.87,11.61,3.14.46,3.93.81,3.93,1.73s-.92,1.26-2.36,1.26c-.26,0-.26,0-7.08-.34-3.28-.12-5.51-.23-6.43-.23a71.39,71.39,0,0,0-8.39.57,14,14,0,0,1-2.1.12c-1,0-1.84-.46-1.84-1.27,0-.57.39-1,1.57-1.26,3.55-.69,4.6-1.27,5.91-3.11C13.9,88.84,14.69,86,15,80.79,16.66,50,16.79,46.4,16.79,42.14c0-13.34-3.67-19.2-13-20.7-1.44-.23-2-.57-2-1.38s.52-1.26,1.57-1.26l2.1.11A34.15,34.15,0,0,0,9.84,19c3,0,5.37-.12,6.69-.23l2.62-.12c2.23,0,2.75.58,5.12,4.83L50.89,74a82.89,82.89,0,0,0,4.33,7.25c.26,0,.66-.35.92-1a15.69,15.69,0,0,1,.79-1.49,9.83,9.83,0,0,1,.65-1.15l30-56.47c1.31-2.42,1.57-2.65,2.88-2.65.13,0,1.45.12,3.15.23H96c2.63,0,4.72-.11,6.17-.23l2-.11c.79,0,1.19.34,1.19,1.15,0,1-.14,1-4.07,2-4.2.92-5.9,4.26-5.9,12.08,0,1.73.13,4.25.39,14.26l1.18,30.48c.39,13.68.79,14.37,8.66,15.64,2.75.34,3.41.57,3.41,1.49s-.79,1.15-2.36,1.15c-.66,0-.66,0-6.69-.46-1.58-.11-3.28-.23-5.38-.23-1.71,0-2.23,0-11.54.46a19.47,19.47,0,0,1-2.36.12c-1.18,0-1.84-.35-1.84-1s.52-1,1.57-1.26c5.12-1.27,6.43-3.34,6.43-9.66,0-1.5-.13-7.59-.26-9.55Z"/><path class="cls-1" d="M129.59,66.53c-5.9-.12-6.69.34-8.92,5.17L116.6,80c-2.36,4.72-2.88,6.1-2.88,8.4,0,3.56,1.44,4.71,7.47,5.86,1.32.23,2,.69,2,1.38s-.65.92-1.7.92c-.79,0-.79,0-8.4-.46C111,96,108.86,96,106,96a24.32,24.32,0,0,0-3,.11c-1.83.12-3.28.23-3.54.23-1,0-1.7-.34-1.7-1s.13-.92,3.54-1.73c2.36-.8,6.16-5.63,8.78-11.38L143,18c.78-1.38,1.05-1.61,1.83-1.61s1.18.35,1.84,1.61l27.54,61.76c.79,2,1.71,3.8,2.63,5.87,2.23,5.4,5,7.36,11.67,8.28,1.31.23,2,.57,2,1.26s-.66,1-1.84,1l-2.36-.12c-2.1-.23-2.23-.23-11.93-.34l-6,.11a30.94,30.94,0,0,0-5,.35c-.92.11-1.71.23-2.1.23-.79,0-1.58-.58-1.58-1.15,0-.81.4-1,3.68-1.61a3.43,3.43,0,0,0,3.15-3.8c0-2.3-.92-5.06-3.94-12l-3.15-7.36c-1.05-2.41-1.44-3.1-2.1-3.45s-1.57-.57-4.32-.57Zm13.9-31.28c-.92-2.31-1.44-3-2.1-3-.39,0-.65.23-1,1L127.88,57.67a4.16,4.16,0,0,0-.78,2.07c0,1.15.39,1.27,4.59,1.5h17.57c3.94,0,5-.23,5-1.38a8.71,8.71,0,0,0-.66-2.3Z"/><path class="cls-1" d="M257.6,39.27l.27,1.27a1.2,1.2,0,0,1-1.18,1.14c-.66,0-.92-.22-2.23-2.3-8-12.42-18.76-18.51-32.79-18.51-21.65,0-34.89,12.65-34.89,33.24,0,23.11,15.6,39.56,37.38,39.56a40.61,40.61,0,0,0,20.59-5.41c5-2.76,9.31-6.67,11.28-10,1.44-2.76,1.71-3,2.49-3a1.07,1.07,0,0,1,1.05,1,7.42,7.42,0,0,1-.39,2L257.74,85c-.53,2.42-.53,2.42-2.89,3.8a64.28,64.28,0,0,1-32.27,8.51c-12.85,0-23.87-3.11-31.61-8.74A37.66,37.66,0,0,1,176,58.36c0-23.46,19.54-40.71,46-40.71a62.07,62.07,0,0,1,24.66,5.29c3,1.49,4.2,1.95,4.59,1.95a1.66,1.66,0,0,0,1.05-.46,4.94,4.94,0,0,1,2-.8c.65,0,1,.57,1.31,2.07Z"/><path class="cls-1" d="M324.89,56.52c0,23.69-19.28,40.83-45.91,40.83-11.41,0-22.82-3.11-30.3-8.17-10.1-7-16.13-18.86-16.13-32A38.66,38.66,0,0,1,248,27c8.26-5.86,19.8-9.31,31.48-9.31C306,17.65,324.89,33.86,324.89,56.52Zm-82.24-3.33c0,12.88,4.2,23,13,30.93a37.69,37.69,0,0,0,25.7,10c19.68,0,34.11-14.15,34.11-33.58A38.82,38.82,0,0,0,302.07,31c-7.48-6.44-16.27-9.66-26.76-9.66C255.37,21.33,242.65,33.75,242.65,53.19Z"/><path class="cls-1" d="M340.5,66.53c-5.9-.12-6.69.34-8.92,5.17L327.51,80c-2.36,4.72-2.88,6.1-2.88,8.4,0,3.56,1.44,4.71,7.47,5.86,1.32.23,2,.69,2,1.38s-.65.92-1.7.92c-.79,0-.79,0-8.4-.46-2.1-.11-4.2-.11-7.08-.11a24.32,24.32,0,0,0-3,.11c-1.83.12-3.28.23-3.54.23-1.05,0-1.7-.34-1.7-1s.13-.92,3.54-1.73c2.36-.8,6.16-5.63,8.79-11.38L353.88,18c.78-1.38,1.05-1.61,1.83-1.61s1.18.35,1.84,1.61l27.54,61.76c.79,2,1.71,3.8,2.63,5.87,2.23,5.4,5,7.36,11.67,8.28,1.31.23,2,.57,2,1.26s-.66,1-1.84,1l-2.36-.12c-2.1-.23-2.23-.23-11.93-.34l-6,.11a30.94,30.94,0,0,0-5,.35c-.92.11-1.71.23-2.1.23-.79,0-1.57-.58-1.57-1.15,0-.81.39-1,3.67-1.61a3.43,3.43,0,0,0,3.15-3.8c0-2.3-.92-5.06-3.94-12l-3.15-7.36c-1-2.41-1.44-3.1-2.1-3.45s-1.57-.57-4.32-.57Zm13.9-31.28c-.92-2.31-1.44-3-2.1-3-.39,0-.65.23-1.05,1L338.79,57.67a4.16,4.16,0,0,0-.78,2.07c0,1.15.39,1.27,4.59,1.5h17.57c3.94,0,5-.23,5-1.38a8.71,8.71,0,0,0-.66-2.3Z"/></svg>