<svg xmlns="http://www.w3.org/2000/svg" width="176.727" height="165.802" viewBox="0 0 176.727 165.802">
  <g id="Volunteer" transform="translate(2.009 2.007)">
    <path id="Path_47" data-name="Path 47" d="M221.95,139.37a2.441,2.441,0,0,0-2.711-1.96c-2.091.037-3.207,1.16-3.406,3.487-.329,3.9-.62,7.792-.949,11.682-.211,2.612-.447,5.217-.62,7.829a1.545,1.545,0,0,1-1.278,1.52c-.825.168-.769-.651-.949-1.154-.056-.167-.081-.347-.124-.521q-2.122-8.506-4.25-17a2.753,2.753,0,0,0-2.972-2.389c-2.078.13-3.17,1.681-2.748,3.971,1.117,6.061,2.271,12.116,3.369,18.184.552,3.052-.323,5.888-1.57,8.63-.124.279-.471.459-.72.682a3.928,3.928,0,0,1-.62-.682,20.342,20.342,0,0,0-4.647-5.869,15.311,15.311,0,0,0-7.891-3.66,3.121,3.121,0,0,0-3.052,1.576,2.728,2.728,0,0,0,1.346,2.99,17.67,17.67,0,0,1,2.37,1.861,24.71,24.71,0,0,1,6.285,10.236,28.847,28.847,0,0,0,1.191,2.99,20.146,20.146,0,0,0,7.476,8.257,1.787,1.787,0,0,1,.838,1.979q-1.446,10.962-2.829,21.937h19.065c.341-5.919.763-11.825,1.048-17.743a5.006,5.006,0,0,1,1.991-4.113,16.865,16.865,0,0,0,5.416-8.983c.881-3.313,1.284-6.744,1.973-10.112a6.781,6.781,0,0,1,.968-2.482c2.389-3.487,4.907-6.886,7.265-10.4a21.256,21.256,0,0,0,2.072-4.212,1.861,1.861,0,0,0-.713-2.382,2.546,2.546,0,0,0-3.015-.13,7.575,7.575,0,0,0-1.539,1.483c-2.941,3.66-5.844,7.352-8.785,11.012a4.691,4.691,0,0,1-1.024.751c0-.434-.062-.869-.043-1.3a2.258,2.258,0,0,1,.186-.62c1.805-5.255,3.654-10.491,5.379-15.77a16.341,16.341,0,0,0,.689-4.212c.068-1.483-.534-2.271-1.539-2.537a2.755,2.755,0,0,0-3.232,1.315,12.971,12.971,0,0,0-.962,2.035c-2.14,5.441-4.243,10.888-6.421,16.31-.192.478-.794.794-1.2,1.179a5.242,5.242,0,0,1-.323-1.433c.471-6.359,1-12.718,1.452-19.083A10.782,10.782,0,0,0,221.95,139.37Z" transform="translate(-70.869 -52.152)" fill="none" stroke="#014693" stroke-width="4"/>
    <path id="Path_48" data-name="Path 48" d="M135.726,29.208c1.086-4.641,2.252-9.262,3.207-13.928a13.121,13.121,0,0,0-.354-7.017,3.1,3.1,0,0,0-2.091-2.147A4.758,4.758,0,0,0,130.905,8.3a14.1,14.1,0,0,0-1.284,3.17c-2.866,10.026-5.677,20.07-8.561,30.089a4.733,4.733,0,0,1-1.3,1.861c-.447.434-.986.23-1.129-.409a9.306,9.306,0,0,1-.2-1.812c-.223-11.254-.4-22.508-.695-33.762a15.2,15.2,0,0,0-1.042-4.783A3.983,3.983,0,0,0,112.66-.006c-3.8,0-6.086,2.32-6.03,6.154q.261,16.937.534,33.88c0,.453.074,1.067-.174,1.334-.62.62-1.328,1.477-2.109,1.607-.98.167-1.092-1.036-1.359-1.781Q98.267,26.454,93.03,11.72a5.026,5.026,0,0,0-9.759,2.029,10.764,10.764,0,0,0,.422,2.209Q87.9,30.524,92.149,45.072c1.638,5.584.807,10.906-1.086,16.2a1.712,1.712,0,0,1-1,1.011c-.279.062-.794-.453-1.042-.825A33.867,33.867,0,0,0,78.755,51.2a24.572,24.572,0,0,0-13.289-4.057,4.864,4.864,0,0,0-4.256,2.7c-.782,1.408-.167,2.748.713,3.89a6.322,6.322,0,0,0,1.669,1.3A55.08,55.08,0,0,1,68.7,58.361c5.584,4.6,9.449,10.454,12.408,17.061A29.837,29.837,0,0,0,92.9,89.337c1.861,1.117,3.629,2.3,5.466,3.431a1.241,1.241,0,0,1,.7,1.3c-.174,5.118-.31,10.249-.459,15.373q-.775,26.168-1.539,52.342H131.5q-.54-15.007-1.073-30.021-.62-18.053-1.241-36.113a1.917,1.917,0,0,1,.5-1.166,64.8,64.8,0,0,0,4.907-5.652,36.739,36.739,0,0,0,5.776-16.13c.62-4.684.682-9.436.893-14.157a9.709,9.709,0,0,1,1.309-4.585q5.323-9.306,10.547-18.612a28.116,28.116,0,0,0,2.1-4.461,19.691,19.691,0,0,0,.869-4.287,2.8,2.8,0,0,0-1.241-2.624,4.622,4.622,0,0,0-6.26.5,16.708,16.708,0,0,0-1.911,2.482c-4.467,6.868-8.958,13.8-13.456,20.715-.242.366-.757.565-1.142.838-.174-.5-.372-.993-.5-1.5a1.47,1.47,0,0,1,.118-.62Q133.71,37.795,135.726,29.208Z" transform="translate(-23.097 0.015)" fill="none" stroke="#014693" stroke-width="4"/>
    <path id="Path_49" data-name="Path 49" d="M44.983,186.115a2.308,2.308,0,0,1,.62-2.19,13.158,13.158,0,0,0,1.9-2.841,22.012,22.012,0,0,0,2.482-9.926c.043-3.145-.323-6.291-.391-9.442a7.879,7.879,0,0,1,.534-3.009c1.6-3.989,3.363-7.916,4.963-11.911a23.246,23.246,0,0,0,1.241-4.535A2.22,2.22,0,0,0,55.02,139.5a2.724,2.724,0,0,0-3.437.906,10.671,10.671,0,0,0-.986,1.663c-2.078,4.212-4.126,8.437-6.2,12.637a9.993,9.993,0,0,1-1.135,1.508,8.685,8.685,0,0,1-.267-2c.62-5.807,1.377-11.6,1.948-17.414a19.741,19.741,0,0,0-.323-4.783,2.116,2.116,0,0,0-1.861-1.96,2.829,2.829,0,0,0-2.972,1.514,9.548,9.548,0,0,0-.707,2.482q-1.508,9.306-2.953,18.612A1.712,1.712,0,0,1,34.8,154.32c-.149-.62-.323-1.135-.4-1.675-.763-5.4-1.483-10.795-2.264-16.186a39.3,39.3,0,0,0-1.123-6.136c-.788-2.482-3.288-3.028-5.261-1.352A3.431,3.431,0,0,0,24.69,132.3c.62,4.442,1.2,8.878,1.805,13.32.335,2.482.658,4.963.993,7.445a1.477,1.477,0,0,1-1.067,1.75c-.261.074-.775-.62-1.123-1.011a3.872,3.872,0,0,1-.434-.862q-4.014-8.065-8.034-16.174a2.919,2.919,0,0,0-3.822-1.663,2.956,2.956,0,0,0-1.942,3.871,11.236,11.236,0,0,0,.515,1.408q3.567,8.425,7.147,16.825c1.346,3.145,1.191,6.359.534,9.6a3.531,3.531,0,0,1-.558.962,4.542,4.542,0,0,1-.906-.62,20.206,20.206,0,0,0-8.115-5.85,14.685,14.685,0,0,0-7.085-1.03A3.2,3.2,0,0,0,0,162.664a2.861,2.861,0,0,0,2,2.624A22.223,22.223,0,0,1,5.277,166.9a26.2,26.2,0,0,1,8.475,8.989,19.61,19.61,0,0,0,9.343,8.561c.825.347,1.607.8,2.438,1.135a1.3,1.3,0,0,1,.875,1.29q1.024,11.744,2.085,23.482H48.773Q46.887,198.243,44.983,186.115Z" transform="translate(0.005 -48.583)" fill="none" stroke="#014693" stroke-width="4"/>
  </g>
</svg>
